<svg width="24" height="24" viewBox="0 0 24 24" fill="none" xmlns="http://www.w3.org/2000/svg">
<path d="M12.997 7.054V4C12.997 3.80225 13.0557 3.60895 13.1656 3.44454C13.2755 3.28013 13.4316 3.15199 13.6143 3.07632C13.797 3.00065 13.9981 2.98085 14.192 3.01942C14.386 3.05798 14.5641 3.15319 14.704 3.293L21.704 10.293C21.7969 10.3858 21.8707 10.496 21.921 10.6173C21.9713 10.7386 21.9972 10.8687 21.9972 11C21.9972 11.1313 21.9713 11.2614 21.921 11.3827C21.8707 11.504 21.7969 11.6142 21.704 11.707L14.704 18.707C14.5643 18.8473 14.3861 18.9429 14.192 18.9818C13.9979 19.0206 13.7966 19.0009 13.6137 18.9252C13.4308 18.8494 13.2746 18.721 13.1647 18.5563C13.0549 18.3916 12.9966 18.198 12.997 18V14.904C12.713 14.884 12.432 14.875 12.154 14.875C6.72799 14.875 3.91499 18.447 3.79199 18.605C3.66593 18.7717 3.4906 18.8946 3.29085 18.9561C3.0911 19.0177 2.87704 19.0148 2.67899 18.948C2.48032 18.8814 2.3076 18.754 2.18523 18.5839C2.06285 18.4138 1.99701 18.2095 1.99699 18C1.99699 8.876 10.083 7.319 12.997 7.054V7.054ZM12.154 12.875C12.801 12.875 13.466 12.92 14.129 13.008C14.3693 13.0402 14.5897 13.1585 14.7493 13.341C14.909 13.5234 14.997 13.7576 14.997 14V15.586L19.583 11L14.997 6.414V8C14.997 8.552 14.526 9 13.975 9C13.065 9 5.86099 9.201 4.29599 15.425C5.94999 14.207 8.57699 12.875 12.154 12.875Z" fill="black"/>
</svg>
