<svg width="22" height="20" viewBox="0 0 22 20" fill="none" xmlns="http://www.w3.org/2000/svg">
<path d="M11.997 6.054V3C11.997 2.80225 12.0557 2.60895 12.1656 2.44454C12.2755 2.28013 12.4316 2.15199 12.6143 2.07632C12.797 2.00065 12.9981 1.98085 13.192 2.01942C13.386 2.05798 13.5641 2.15319 13.704 2.293L20.704 9.293C20.7969 9.38579 20.8707 9.49599 20.921 9.61731C20.9713 9.73862 20.9972 9.86867 20.9972 10C20.9972 10.1313 20.9713 10.2614 20.921 10.3827C20.8707 10.504 20.7969 10.6142 20.704 10.707L13.704 17.707C13.5643 17.8473 13.3861 17.9429 13.192 17.9818C12.9979 18.0206 12.7966 18.0009 12.6137 17.9252C12.4308 17.8494 12.2746 17.721 12.1647 17.5563C12.0549 17.3916 11.9966 17.198 11.997 17V13.904C11.713 13.884 11.432 13.875 11.154 13.875C5.72799 13.875 2.91499 17.447 2.79199 17.605C2.66593 17.7717 2.4906 17.8946 2.29085 17.9561C2.0911 18.0177 1.87704 18.0148 1.67899 17.948C1.48032 17.8814 1.3076 17.754 1.18523 17.5839C1.06285 17.4138 0.997009 17.2095 0.99699 17C0.99699 7.876 9.08299 6.319 11.997 6.054ZM11.154 11.875C11.801 11.875 12.466 11.92 13.129 12.008C13.3693 12.0402 13.5897 12.1585 13.7493 12.341C13.909 12.5234 13.997 12.7576 13.997 13V14.586L18.583 10L13.997 5.414V7C13.997 7.552 13.526 8 12.975 8C12.065 8 4.86099 8.201 3.29599 14.425C4.94999 13.207 7.57699 11.875 11.154 11.875Z" fill="black" stroke="white"/>
</svg>
