<svg width="512" height="512" viewBox="0 0 512 512" fill="none" xmlns="http://www.w3.org/2000/svg">
<rect width="512" height="512" fill="black"/>
<g clip-path="url(#clip0)">
<path d="M152.712 295.103C159.481 295 166.197 295.052 172.914 295C173.327 302.905 176.169 310.965 181.956 316.545C187.742 322.28 195.906 324.915 203.862 325.793V346.615C196.422 346.357 188.931 344.807 182.162 341.603C179.217 340.26 176.479 338.555 173.792 336.798C173.741 351.885 173.844 366.972 173.689 382.007C173.276 389.24 170.899 396.422 166.714 402.363C159.946 412.283 148.217 418.742 136.179 418.948C128.791 419.362 121.402 417.347 115.099 413.627C104.662 407.478 97.3258 396.215 96.2408 384.125C96.1375 381.542 96.0858 378.958 96.1891 376.427C97.1191 366.61 101.976 357.207 109.519 350.8C118.096 343.36 130.082 339.795 141.294 341.913C141.397 349.56 141.087 357.207 141.087 364.853C135.972 363.2 129.979 363.665 125.484 366.765C122.229 368.883 119.749 372.138 118.457 375.807C117.372 378.442 117.682 381.335 117.734 384.125C118.974 392.598 127.137 399.728 135.817 398.953C141.604 398.902 147.132 395.543 150.129 390.635C151.111 388.93 152.196 387.173 152.247 385.158C152.764 375.91 152.557 366.713 152.609 357.465C152.661 336.643 152.557 315.873 152.712 295.103Z" fill="#FFFF00"/>
</g>
<path d="M333.583 102.333H354.25L369.44 147.955L369.75 102.333H390.417V205.667C383.958 204.53 376.828 203.807 369.285 203.497L354.25 159.167L353.888 203.548C346.655 203.858 339.783 204.582 333.583 205.667V102.333Z" fill="#FFFF00"/>
<g clip-path="url(#clip1)">
<path d="M361.981 389.372C354.998 380.614 350.902 372.942 349.526 366.362C348.174 361.053 348.697 356.814 351.042 353.629C353.502 349.955 357.156 348.18 361.981 348.18C366.805 348.18 370.479 349.955 372.939 353.671C375.241 356.822 375.826 361.057 374.412 366.405C372.897 373.104 368.801 380.773 361.957 389.414L361.981 389.372ZM411.569 395.266C410.62 401.702 406.241 407.03 400.208 409.634C388.583 414.699 377.058 406.627 367.208 395.669C383.495 375.263 386.521 359.379 379.519 349.107C375.423 343.213 369.529 340.349 361.981 340.349C346.783 340.349 338.428 353.206 341.718 368.141C343.617 376.235 348.701 385.415 356.773 395.688C351.708 401.28 346.903 405.275 342.664 407.735C339.374 409.51 336.227 410.603 333.217 410.862C319.391 412.92 308.533 399.52 313.458 385.675C314.144 383.877 315.516 380.61 317.837 375.542L317.957 375.259C325.525 358.852 334.708 340.202 345.245 319.517L345.527 318.831L348.515 313.081C350.856 308.822 351.805 306.923 355.498 304.583C357.296 303.513 359.474 302.967 361.934 302.967C366.859 302.967 370.692 305.834 372.35 308.156C373.156 309.388 374.125 311.042 375.357 313.081L378.244 318.711L378.647 319.517C389.183 340.206 398.386 358.813 405.912 375.259L406.032 375.398L408.798 381.695L410.434 385.652C411.685 388.802 411.968 391.949 411.542 395.238L411.569 395.266ZM417.866 382.935C416.917 379.909 415.262 376.356 413.224 372.116V371.954C403.474 351.265 394.414 332.657 385.816 315.948L385.25 315.119C379.116 302.545 374.733 294.996 361.981 294.996C349.387 294.996 344.039 303.754 338.568 315.138L338.146 315.968C329.528 332.657 320.487 351.288 310.757 371.973V372.256L307.87 378.553C306.801 381.157 306.235 382.509 306.095 382.931C299.113 402.105 313.501 418.938 330.899 418.938C331.039 418.938 331.585 418.938 332.252 418.818H334.189C343.23 417.71 352.533 411.955 361.981 401.683C371.428 411.955 380.771 417.706 389.792 418.818H391.71C392.396 418.938 392.942 418.938 393.081 418.938C410.48 418.957 424.849 402.105 417.866 382.931V382.935Z" fill="#FFFF00"/>
</g>
<path d="M150 92C133.175 92 131.059 92.0775 124.448 92.372C117.838 92.682 113.335 93.7205 109.39 95.255C105.252 96.8113 101.504 99.2527 98.4083 102.408C95.2546 105.506 92.8136 109.253 91.255 113.39C89.7205 117.327 88.6743 121.837 88.372 128.425C88.0775 135.051 88 137.159 88 154.008C88 170.841 88.0775 172.949 88.372 179.56C88.682 186.163 89.7205 190.665 91.255 194.61C92.8438 198.687 94.9595 202.143 98.4083 205.592C101.849 209.04 105.306 211.164 109.382 212.745C113.335 214.28 117.83 215.326 124.433 215.628C131.051 215.923 133.159 216 150 216C166.841 216 168.941 215.923 175.56 215.628C182.155 215.318 186.673 214.28 190.618 212.745C194.753 211.188 198.498 208.747 201.592 205.592C205.04 202.143 207.156 198.687 208.745 194.61C210.272 190.665 211.318 186.163 211.628 179.56C211.923 172.949 212 170.841 212 154C212 137.159 211.923 135.051 211.628 128.433C211.318 121.838 210.272 117.327 208.745 113.39C207.187 109.253 204.746 105.506 201.592 102.408C198.497 99.2515 194.748 96.81 190.61 95.255C186.658 93.7205 182.147 92.6743 175.552 92.372C168.933 92.0775 166.833 92 149.985 92H150.008H150ZM144.443 103.175H150.008C166.562 103.175 168.522 103.23 175.056 103.532C181.101 103.803 184.387 104.819 186.572 105.663C189.463 106.787 191.532 108.135 193.702 110.306C195.872 112.476 197.213 114.537 198.337 117.436C199.189 119.613 200.197 122.899 200.468 128.944C200.77 135.478 200.832 137.438 200.832 153.985C200.832 170.531 200.77 172.499 200.468 179.032C200.197 185.077 199.182 188.356 198.337 190.541C197.343 193.233 195.756 195.667 193.694 197.663C191.524 199.833 189.463 201.174 186.565 202.298C184.395 203.151 181.108 204.158 175.056 204.437C168.522 204.732 166.562 204.801 150.008 204.801C133.454 204.801 131.485 204.732 124.952 204.437C118.907 204.158 115.629 203.151 113.443 202.298C110.75 201.305 108.314 199.722 106.313 197.663C104.25 195.664 102.661 193.228 101.663 190.534C100.819 188.356 99.8033 185.07 99.532 179.025C99.2375 172.492 99.1755 170.531 99.1755 153.969C99.1755 137.415 99.2375 135.462 99.532 128.929C99.811 122.884 100.819 119.598 101.671 117.412C102.795 114.521 104.143 112.452 106.313 110.282C108.483 108.112 110.545 106.772 113.443 105.648C115.629 104.795 118.907 103.788 124.952 103.509C130.672 103.245 132.888 103.168 144.443 103.16V103.175ZM183.1 113.468C182.123 113.468 181.156 113.66 180.253 114.034C179.35 114.408 178.53 114.956 177.839 115.647C177.149 116.337 176.6 117.158 176.227 118.06C175.853 118.963 175.66 119.93 175.66 120.907C175.66 121.885 175.853 122.852 176.227 123.755C176.6 124.657 177.149 125.478 177.839 126.168C178.53 126.859 179.35 127.407 180.253 127.781C181.156 128.155 182.123 128.347 183.1 128.347C185.073 128.347 186.966 127.564 188.361 126.168C189.756 124.773 190.54 122.881 190.54 120.907C190.54 118.934 189.756 117.042 188.361 115.647C186.966 114.251 185.073 113.468 183.1 113.468ZM150.008 122.163C145.785 122.097 141.59 122.872 137.67 124.443C133.749 126.013 130.179 128.348 127.17 131.311C124.16 134.275 121.77 137.807 120.138 141.703C118.506 145.599 117.666 149.78 117.666 154.004C117.666 158.228 118.506 162.409 120.138 166.305C121.77 170.201 124.16 173.733 127.17 176.696C130.179 179.66 133.749 181.995 137.67 183.565C141.59 185.136 145.785 185.911 150.008 185.845C158.366 185.714 166.339 182.302 172.204 176.345C178.068 170.388 181.356 162.364 181.356 154.004C181.356 145.644 178.068 137.62 172.204 131.663C166.339 125.705 158.366 122.293 150.008 122.163ZM150.008 133.331C155.49 133.331 160.747 135.508 164.623 139.385C168.499 143.261 170.677 148.518 170.677 154C170.677 159.482 168.499 164.739 164.623 168.615C160.747 172.492 155.49 174.669 150.008 174.669C144.526 174.669 139.269 172.492 135.392 168.615C131.516 164.739 129.339 159.482 129.339 154C129.339 148.518 131.516 143.261 135.392 139.385C139.269 135.508 144.526 133.331 150.008 133.331Z" fill="#FFFF00"/>
<defs>
<clipPath id="clip0">
<rect width="124" height="124" fill="white" transform="translate(88 295)"/>
</clipPath>
<clipPath id="clip1">
<rect width="124" height="124" fill="white" transform="translate(300 295)"/>
</clipPath>
</defs>
</svg>
